<mxfile host="app.diagrams.net" modified="2022-06-11T14:08:10.845Z" agent="5.0 (Windows NT 10.0; Win64; x64) AppleWebKit/537.36 (KHTML, like Gecko) Chrome/102.0.5005.63 Safari/537.36 Edg/102.0.1245.33" etag="7E1f6e5enqP_jYjZlR7H" version="19.0.3" type="github">
  <diagram id="vo8UH_zVqahfNAsJbKlJ" name="Page-1">
    <mxGraphModel dx="1990" dy="471" grid="1" gridSize="10" guides="1" tooltips="1" connect="1" arrows="1" fold="1" page="1" pageScale="1" pageWidth="827" pageHeight="1169" math="0" shadow="0">
      <root>
        <mxCell id="0" />
        <mxCell id="1" parent="0" />
        <mxCell id="ZFrfi6K9khdsfjG5ujtt-9" value="" style="rounded=0;whiteSpace=wrap;html=1;labelBackgroundColor=default;fillColor=#d5e8d4;strokeColor=#82b366;opacity=40;" vertex="1" parent="1">
          <mxGeometry x="-10" y="130" width="650" height="40" as="geometry" />
        </mxCell>
        <mxCell id="ZFrfi6K9khdsfjG5ujtt-7" value="ref" style="shape=umlFrame;whiteSpace=wrap;html=1;width=40;height=20;boundedLbl=1;verticalAlign=middle;align=left;spacingLeft=5;labelBackgroundColor=default;gradientColor=#ffffff;" vertex="1" parent="1">
          <mxGeometry x="-10" y="130" width="650" height="40" as="geometry" />
        </mxCell>
        <mxCell id="ZFrfi6K9khdsfjG5ujtt-1" value="GUI" style="shape=umlLifeline;perimeter=lifelinePerimeter;whiteSpace=wrap;html=1;container=1;collapsible=0;recursiveResize=0;outlineConnect=0;" vertex="1" parent="1">
          <mxGeometry x="180" y="70" width="100" height="810" as="geometry" />
        </mxCell>
        <mxCell id="ZFrfi6K9khdsfjG5ujtt-19" value="Affichage formulaire vierge" style="endArrow=none;html=1;rounded=0;verticalAlign=bottom;dashed=1;startArrow=classic;startFill=1;endFill=0;" edge="1" parent="ZFrfi6K9khdsfjG5ujtt-1" source="ZFrfi6K9khdsfjG5ujtt-2">
          <mxGeometry width="50" height="50" relative="1" as="geometry">
            <mxPoint x="-70" y="260" as="sourcePoint" />
            <mxPoint x="50" y="260" as="targetPoint" />
          </mxGeometry>
        </mxCell>
        <mxCell id="ZFrfi6K9khdsfjG5ujtt-31" value="Affichage de la classe" style="endArrow=none;html=1;rounded=0;verticalAlign=bottom;dashed=1;startArrow=classic;startFill=1;endFill=0;" edge="1" parent="ZFrfi6K9khdsfjG5ujtt-1" source="ZFrfi6K9khdsfjG5ujtt-2">
          <mxGeometry width="50" height="50" relative="1" as="geometry">
            <mxPoint x="-70" y="499.9999999999999" as="sourcePoint" />
            <mxPoint x="50" y="499.9999999999999" as="targetPoint" />
          </mxGeometry>
        </mxCell>
        <mxCell id="ZFrfi6K9khdsfjG5ujtt-40" value="Confirmation de l&#39;enregistrement" style="endArrow=none;html=1;rounded=0;verticalAlign=bottom;dashed=1;startArrow=open;startFill=0;endFill=0;" edge="1" parent="ZFrfi6K9khdsfjG5ujtt-1" source="ZFrfi6K9khdsfjG5ujtt-2">
          <mxGeometry width="50" height="50" relative="1" as="geometry">
            <mxPoint x="-70" y="670" as="sourcePoint" />
            <mxPoint x="50" y="670" as="targetPoint" />
          </mxGeometry>
        </mxCell>
        <mxCell id="ZFrfi6K9khdsfjG5ujtt-2" value="Direction" style="shape=umlLifeline;participant=umlActor;perimeter=lifelinePerimeter;whiteSpace=wrap;html=1;container=1;collapsible=0;recursiveResize=0;verticalAlign=top;spacingTop=36;outlineConnect=0;labelBackgroundColor=default;" vertex="1" parent="1">
          <mxGeometry x="40" y="60" width="20" height="820" as="geometry" />
        </mxCell>
        <mxCell id="ZFrfi6K9khdsfjG5ujtt-3" value="Base de données" style="shape=umlLifeline;perimeter=lifelinePerimeter;whiteSpace=wrap;html=1;container=1;collapsible=0;recursiveResize=0;outlineConnect=0;" vertex="1" parent="1">
          <mxGeometry x="520" y="70" width="100" height="810" as="geometry" />
        </mxCell>
        <mxCell id="ZFrfi6K9khdsfjG5ujtt-25" value="Récupération des classes" style="curved=1;endArrow=classic;html=1;rounded=0;dashed=1;" edge="1" parent="ZFrfi6K9khdsfjG5ujtt-3">
          <mxGeometry width="50" height="50" relative="1" as="geometry">
            <mxPoint x="50" y="370" as="sourcePoint" />
            <mxPoint x="50" y="400" as="targetPoint" />
            <Array as="points">
              <mxPoint x="80" y="370" />
              <mxPoint x="80" y="400" />
            </Array>
          </mxGeometry>
        </mxCell>
        <mxCell id="ZFrfi6K9khdsfjG5ujtt-34" value="Enregistrement Enseignant" style="curved=1;endArrow=classic;html=1;rounded=0;dashed=1;" edge="1" parent="ZFrfi6K9khdsfjG5ujtt-3">
          <mxGeometry width="50" height="50" relative="1" as="geometry">
            <mxPoint x="50" y="559.9999999999999" as="sourcePoint" />
            <mxPoint x="50" y="589.9999999999999" as="targetPoint" />
            <Array as="points">
              <mxPoint x="80" y="560" />
              <mxPoint x="80" y="590" />
            </Array>
          </mxGeometry>
        </mxCell>
        <mxCell id="ZFrfi6K9khdsfjG5ujtt-4" value="" style="endArrow=classic;html=1;rounded=0;verticalAlign=bottom;" edge="1" parent="1">
          <mxGeometry width="50" height="50" relative="1" as="geometry">
            <mxPoint x="840" y="530" as="sourcePoint" />
            <mxPoint x="960" y="530" as="targetPoint" />
          </mxGeometry>
        </mxCell>
        <mxCell id="ZFrfi6K9khdsfjG5ujtt-5" value="Création formulaire vierge" style="endArrow=none;html=1;rounded=0;verticalAlign=bottom;dashed=1;startArrow=classic;startFill=1;endFill=0;" edge="1" parent="1" source="ZFrfi6K9khdsfjG5ujtt-1" target="ZFrfi6K9khdsfjG5ujtt-16">
          <mxGeometry width="50" height="50" relative="1" as="geometry">
            <mxPoint x="470" y="340" as="sourcePoint" />
            <mxPoint x="590" y="340" as="targetPoint" />
            <Array as="points">
              <mxPoint x="510" y="320" />
            </Array>
          </mxGeometry>
        </mxCell>
        <mxCell id="ZFrfi6K9khdsfjG5ujtt-8" value="&lt;b&gt;Login&lt;/b&gt;" style="text;html=1;align=center;verticalAlign=middle;resizable=0;points=[];autosize=1;strokeColor=none;fillColor=none;" vertex="1" parent="1">
          <mxGeometry x="60" y="140" width="50" height="20" as="geometry" />
        </mxCell>
        <mxCell id="ZFrfi6K9khdsfjG5ujtt-10" value="Gestion des Utilisateurs" style="endArrow=classic;html=1;rounded=0;verticalAlign=bottom;" edge="1" parent="1" target="ZFrfi6K9khdsfjG5ujtt-1">
          <mxGeometry width="50" height="50" relative="1" as="geometry">
            <mxPoint x="50" y="200" as="sourcePoint" />
            <mxPoint x="170" y="200" as="targetPoint" />
          </mxGeometry>
        </mxCell>
        <mxCell id="ZFrfi6K9khdsfjG5ujtt-12" value="Classes" style="shape=umlLifeline;perimeter=lifelinePerimeter;whiteSpace=wrap;html=1;container=1;collapsible=0;recursiveResize=0;outlineConnect=0;" vertex="1" parent="1">
          <mxGeometry x="350" y="70" width="100" height="810" as="geometry" />
        </mxCell>
        <mxCell id="ZFrfi6K9khdsfjG5ujtt-13" value="Affichage Gestion utilisateur" style="endArrow=none;html=1;rounded=0;verticalAlign=bottom;dashed=1;startArrow=classic;startFill=1;endFill=0;" edge="1" parent="1" target="ZFrfi6K9khdsfjG5ujtt-1">
          <mxGeometry width="50" height="50" relative="1" as="geometry">
            <mxPoint x="50" y="240" as="sourcePoint" />
            <mxPoint x="170" y="240" as="targetPoint" />
          </mxGeometry>
        </mxCell>
        <mxCell id="ZFrfi6K9khdsfjG5ujtt-15" value="Ajouter Enseignant" style="endArrow=classic;html=1;rounded=0;verticalAlign=bottom;" edge="1" parent="1" target="ZFrfi6K9khdsfjG5ujtt-1">
          <mxGeometry width="50" height="50" relative="1" as="geometry">
            <mxPoint x="50" y="280" as="sourcePoint" />
            <mxPoint x="170" y="280" as="targetPoint" />
          </mxGeometry>
        </mxCell>
        <mxCell id="ZFrfi6K9khdsfjG5ujtt-16" value="Enseignant" style="shape=umlLifeline;perimeter=lifelinePerimeter;whiteSpace=wrap;html=1;container=1;collapsible=0;recursiveResize=0;outlineConnect=0;" vertex="1" parent="1">
          <mxGeometry x="690" y="230" width="100" height="650" as="geometry" />
        </mxCell>
        <mxCell id="ZFrfi6K9khdsfjG5ujtt-42" value="" style="rounded=0;whiteSpace=wrap;html=1;labelBackgroundColor=default;gradientColor=#ffffff;fillColor=default;" vertex="1" parent="ZFrfi6K9khdsfjG5ujtt-16">
          <mxGeometry x="45" y="60" width="10" height="440" as="geometry" />
        </mxCell>
        <mxCell id="ZFrfi6K9khdsfjG5ujtt-17" value="Ajouter enseignant" style="endArrow=classic;html=1;rounded=0;verticalAlign=bottom;" edge="1" parent="1" target="ZFrfi6K9khdsfjG5ujtt-16">
          <mxGeometry width="50" height="50" relative="1" as="geometry">
            <mxPoint x="230" y="290" as="sourcePoint" />
            <mxPoint x="350" y="290" as="targetPoint" />
          </mxGeometry>
        </mxCell>
        <mxCell id="ZFrfi6K9khdsfjG5ujtt-18" value="" style="endArrow=none;html=1;rounded=0;verticalAlign=bottom;dashed=1;startArrow=classic;startFill=1;endFill=0;" edge="1" parent="1">
          <mxGeometry width="50" height="50" relative="1" as="geometry">
            <mxPoint x="837" y="570" as="sourcePoint" />
            <mxPoint x="957" y="570" as="targetPoint" />
          </mxGeometry>
        </mxCell>
        <mxCell id="ZFrfi6K9khdsfjG5ujtt-20" value="Remplir nom, prénom etc." style="endArrow=open;html=1;rounded=0;verticalAlign=bottom;endFill=0;" edge="1" parent="1" target="ZFrfi6K9khdsfjG5ujtt-1">
          <mxGeometry width="50" height="50" relative="1" as="geometry">
            <mxPoint x="50" y="370" as="sourcePoint" />
            <mxPoint x="170" y="370" as="targetPoint" />
          </mxGeometry>
        </mxCell>
        <mxCell id="ZFrfi6K9khdsfjG5ujtt-21" value="Assigner classe" style="endArrow=classic;html=1;rounded=0;verticalAlign=bottom;" edge="1" parent="1" target="ZFrfi6K9khdsfjG5ujtt-1">
          <mxGeometry width="50" height="50" relative="1" as="geometry">
            <mxPoint x="50" y="410" as="sourcePoint" />
            <mxPoint x="170" y="410" as="targetPoint" />
          </mxGeometry>
        </mxCell>
        <mxCell id="ZFrfi6K9khdsfjG5ujtt-22" value="Assigner classe" style="endArrow=classic;html=1;rounded=0;verticalAlign=bottom;" edge="1" parent="1" target="ZFrfi6K9khdsfjG5ujtt-3">
          <mxGeometry width="50" height="50" relative="1" as="geometry">
            <mxPoint x="230" y="430" as="sourcePoint" />
            <mxPoint x="350" y="430" as="targetPoint" />
          </mxGeometry>
        </mxCell>
        <mxCell id="ZFrfi6K9khdsfjG5ujtt-26" value="Récupération des classes" style="endArrow=none;html=1;rounded=0;verticalAlign=bottom;dashed=1;startArrow=classic;startFill=1;endFill=0;" edge="1" parent="1" target="ZFrfi6K9khdsfjG5ujtt-3">
          <mxGeometry width="50" height="50" relative="1" as="geometry">
            <mxPoint x="400" y="480" as="sourcePoint" />
            <mxPoint x="630" y="479.9999999999999" as="targetPoint" />
          </mxGeometry>
        </mxCell>
        <mxCell id="ZFrfi6K9khdsfjG5ujtt-27" value="Affichage des classes" style="endArrow=none;html=1;rounded=0;verticalAlign=bottom;dashed=1;startArrow=classic;startFill=1;endFill=0;" edge="1" parent="1" source="ZFrfi6K9khdsfjG5ujtt-1" target="ZFrfi6K9khdsfjG5ujtt-12">
          <mxGeometry width="50" height="50" relative="1" as="geometry">
            <mxPoint x="240" y="509.9999999999999" as="sourcePoint" />
            <mxPoint x="360" y="509.9999999999999" as="targetPoint" />
            <Array as="points">
              <mxPoint x="310" y="500" />
            </Array>
          </mxGeometry>
        </mxCell>
        <mxCell id="ZFrfi6K9khdsfjG5ujtt-28" value="Sélection de la classe" style="endArrow=classic;html=1;rounded=0;verticalAlign=bottom;" edge="1" parent="1" target="ZFrfi6K9khdsfjG5ujtt-1">
          <mxGeometry width="50" height="50" relative="1" as="geometry">
            <mxPoint x="50" y="519.9999999999999" as="sourcePoint" />
            <mxPoint x="170" y="519.9999999999999" as="targetPoint" />
          </mxGeometry>
        </mxCell>
        <mxCell id="ZFrfi6K9khdsfjG5ujtt-29" value="Sélection de ls classe" style="endArrow=classic;html=1;rounded=0;verticalAlign=bottom;" edge="1" parent="1" target="ZFrfi6K9khdsfjG5ujtt-12">
          <mxGeometry width="50" height="50" relative="1" as="geometry">
            <mxPoint x="230" y="529.9999999999999" as="sourcePoint" />
            <mxPoint x="350" y="529.9999999999999" as="targetPoint" />
          </mxGeometry>
        </mxCell>
        <mxCell id="ZFrfi6K9khdsfjG5ujtt-30" value="Classe sélectionné" style="endArrow=none;html=1;rounded=0;verticalAlign=bottom;dashed=1;startArrow=classic;startFill=1;endFill=0;" edge="1" parent="1" source="ZFrfi6K9khdsfjG5ujtt-1" target="ZFrfi6K9khdsfjG5ujtt-12">
          <mxGeometry width="50" height="50" relative="1" as="geometry">
            <mxPoint x="255" y="569.9999999999999" as="sourcePoint" />
            <mxPoint x="375" y="569.9999999999999" as="targetPoint" />
            <Array as="points">
              <mxPoint x="310" y="560" />
            </Array>
          </mxGeometry>
        </mxCell>
        <mxCell id="ZFrfi6K9khdsfjG5ujtt-32" value="Sauvegarder" style="endArrow=classic;html=1;rounded=0;verticalAlign=bottom;" edge="1" parent="1" target="ZFrfi6K9khdsfjG5ujtt-1">
          <mxGeometry width="50" height="50" relative="1" as="geometry">
            <mxPoint x="50" y="609.9999999999999" as="sourcePoint" />
            <mxPoint x="170" y="609.9999999999999" as="targetPoint" />
          </mxGeometry>
        </mxCell>
        <mxCell id="ZFrfi6K9khdsfjG5ujtt-33" value="Enregistrement de l&#39;Enseignant" style="endArrow=classic;html=1;rounded=0;verticalAlign=bottom;" edge="1" parent="1" target="ZFrfi6K9khdsfjG5ujtt-3">
          <mxGeometry width="50" height="50" relative="1" as="geometry">
            <mxPoint x="230" y="619.9999999999999" as="sourcePoint" />
            <mxPoint x="350" y="619.9999999999999" as="targetPoint" />
          </mxGeometry>
        </mxCell>
        <mxCell id="ZFrfi6K9khdsfjG5ujtt-36" value="Mail Service" style="shape=umlLifeline;perimeter=lifelinePerimeter;whiteSpace=wrap;html=1;container=1;collapsible=0;recursiveResize=0;outlineConnect=0;labelBackgroundColor=default;gradientColor=#ffffff;opacity=40;" vertex="1" parent="1">
          <mxGeometry x="770" y="70" width="100" height="800" as="geometry" />
        </mxCell>
        <mxCell id="ZFrfi6K9khdsfjG5ujtt-38" value="Envoie du lien" style="curved=1;endArrow=classic;html=1;rounded=0;dashed=1;" edge="1" parent="ZFrfi6K9khdsfjG5ujtt-36">
          <mxGeometry width="50" height="50" relative="1" as="geometry">
            <mxPoint x="50" y="619.9999999999998" as="sourcePoint" />
            <mxPoint x="50" y="649.9999999999998" as="targetPoint" />
            <Array as="points">
              <mxPoint x="80" y="620" />
              <mxPoint x="80" y="650" />
            </Array>
          </mxGeometry>
        </mxCell>
        <mxCell id="ZFrfi6K9khdsfjG5ujtt-39" value="Confirmation de l&#39;envoie" style="endArrow=none;html=1;rounded=0;verticalAlign=bottom;dashed=1;startArrow=classic;startFill=1;endFill=0;" edge="1" parent="ZFrfi6K9khdsfjG5ujtt-36" source="ZFrfi6K9khdsfjG5ujtt-1">
          <mxGeometry width="50" height="50" relative="1" as="geometry">
            <mxPoint x="-70" y="660" as="sourcePoint" />
            <mxPoint x="50" y="660" as="targetPoint" />
          </mxGeometry>
        </mxCell>
        <mxCell id="ZFrfi6K9khdsfjG5ujtt-37" value="Envoie du lien d&#39;initialisation PW" style="endArrow=classic;html=1;rounded=0;verticalAlign=bottom;" edge="1" parent="1" source="ZFrfi6K9khdsfjG5ujtt-3" target="ZFrfi6K9khdsfjG5ujtt-36">
          <mxGeometry width="50" height="50" relative="1" as="geometry">
            <mxPoint x="630" y="680" as="sourcePoint" />
            <mxPoint x="750" y="680" as="targetPoint" />
            <Array as="points">
              <mxPoint x="690" y="680" />
            </Array>
          </mxGeometry>
        </mxCell>
        <mxCell id="ZFrfi6K9khdsfjG5ujtt-41" value="Affichage Gestion Utilisateur" style="endArrow=none;html=1;rounded=0;verticalAlign=bottom;dashed=1;startArrow=classic;startFill=1;endFill=0;" edge="1" parent="1" target="ZFrfi6K9khdsfjG5ujtt-1">
          <mxGeometry width="50" height="50" relative="1" as="geometry">
            <mxPoint x="50" y="770" as="sourcePoint" />
            <mxPoint x="170" y="770" as="targetPoint" />
          </mxGeometry>
        </mxCell>
        <mxCell id="ZFrfi6K9khdsfjG5ujtt-43" value="ref" style="shape=umlFrame;whiteSpace=wrap;html=1;width=40;height=20;boundedLbl=1;verticalAlign=middle;align=left;spacingLeft=5;labelBackgroundColor=default;fillColor=default;gradientColor=#ffffff;" vertex="1" parent="1">
          <mxGeometry x="910" y="950" width="340" height="180" as="geometry" />
        </mxCell>
      </root>
    </mxGraphModel>
  </diagram>
</mxfile>
